<svg xmlns="http://www.w3.org/2000/svg" viewBox="0 0 38.91 23.89"><defs><style>.cls-1{fill:#1d1d1b;}.cls-2{fill:none;stroke:#13110c;stroke-miterlimit:10;stroke-width:1.69px;}</style></defs><title>Recurso 1</title><g id="Capa_2" data-name="Capa 2"><g id="Layer_1" data-name="Layer 1"><path class="cls-1" d="M25,16.6l1.61,1.79h-.4c-2.24,0-4.07.86-4.07,2.69,0,1.49,1.83,2.7,4.07,2.7s4.06-1.21,4.06-2.7-1.85-3.31-2.79-4.47ZM28.18,21c0,.77-.87,1.39-1.93,1.39s-1.94-.62-1.94-1.39.87-1.39,1.94-1.39,1.93.62,1.93,1.39"/><path class="cls-1" d="M19.63,21.42a1.21,1.21,0,0,1-2.41,0V18.54H15.14v3.08c0,3,6.52,3,6.52,0V18.54h-2Z"/><line class="cls-2" x1="31.9" y1="23.75" x2="31.9" y2="18.54"/><path class="cls-1" d="M8,16.78l.72.88-4,6.09h2.4l.66-1.08h4.57l.69,1.08h2.51l-4.81-7Zm.64,4.47L10.05,19l1.44,2.28Z"/><path class="cls-1" d="M32.1,0a6.87,6.87,0,0,0-4.29,1.44,6.87,6.87,0,0,0-8.38,0A6.77,6.77,0,0,0,15.34,0a6.88,6.88,0,0,0-4.28,1.41A6.89,6.89,0,1,0,6.8,13.81a6.77,6.77,0,0,0,4.27-1.41,6.87,6.87,0,0,0,8.38,0,6.78,6.78,0,0,0,4.09,1.43,6.92,6.92,0,0,0,4.29-1.43,6.84,6.84,0,0,0,4.09,1.42A6.9,6.9,0,1,0,32.1,0m-.17,13a6.11,6.11,0,0,1-4.11-1.66A6.16,6.16,0,0,1,23.55,13a6.07,6.07,0,0,1-4.1-1.66,6.13,6.13,0,0,1-8.38,0,5.27,5.27,0,0,1-.6.49,6.1,6.1,0,0,1-9.2-2.58,2.71,2.71,0,0,1-.63-.12,6.63,6.63,0,0,1,6-8.89A3.29,3.29,0,0,1,7,.82H7a6.09,6.09,0,0,1,4.19,1.75l-.05-.86A6.59,6.59,0,0,1,15,.28a2.76,2.76,0,0,1,.32.53,6.39,6.39,0,0,1,4.19,1.74l-.05-.82A6.47,6.47,0,0,1,23.39.27a2.57,2.57,0,0,1,.29.53h0a6.4,6.4,0,0,1,4.2,1.78l-.06-.86A6.66,6.66,0,0,1,31.78.25a5.7,5.7,0,0,0,.31.54C35.37.94,38,2.9,38.12,7a6,6,0,0,1-6.19,6"/><path class="cls-1" d="M9,9.17A6.5,6.5,0,0,1,8.6,6.83a6.58,6.58,0,0,1,1.43-4l.88,0A5.76,5.76,0,0,0,1.13,6.85a5.76,5.76,0,0,0,4.5,5.69l.28-.35a5.4,5.4,0,0,0,.91.08,5.24,5.24,0,0,0,3.28-1.08l.8,0A6.14,6.14,0,0,1,9.62,9.28,2.74,2.74,0,0,1,9,9.17M6.83,12A5.08,5.08,0,1,1,9.77,2.74a6.85,6.85,0,0,0,0,8.35A5.36,5.36,0,0,1,6.83,12"/><path class="cls-1" d="M12,5.28a1,1,0,0,1,.32-.44A5,5,0,0,0,11.08,3a5.87,5.87,0,0,0-1.6,3.88,5.83,5.83,0,0,0,1.14,3.53,4.41,4.41,0,0,0,.47.54l0-.73A5.11,5.11,0,0,0,12.25,7,5.17,5.17,0,0,0,12,5.28M11.07,9.8a5.06,5.06,0,0,1,0-5.76A5.09,5.09,0,0,1,12,7a5,5,0,0,1-.9,2.81"/><path class="cls-1" d="M20.33,5.27a1.05,1.05,0,0,1,.31-.44A5.42,5.42,0,0,0,19.44,3a5.75,5.75,0,0,0,0,7.93l0-.68A6,6,0,0,0,20.59,7a5.16,5.16,0,0,0-.26-1.72m-.89,4.5a5.07,5.07,0,0,1,0-5.71,5.07,5.07,0,0,1,0,5.71"/><path class="cls-1" d="M25.76,9.15a6.54,6.54,0,0,1-.4-2.34,6.64,6.64,0,0,1,1.43-4h.87a5.85,5.85,0,0,0-3.95-1.64,5.73,5.73,0,0,0-4,1.58A6,6,0,0,1,21.34,7a6.17,6.17,0,0,1-1.64,4.11,5.69,5.69,0,0,0,2.66,1.42l.29-.36a5.4,5.4,0,0,0,.91.08,5.69,5.69,0,0,0,3.34-1.08l.73,0a6.35,6.35,0,0,1-1.25-1.89,2.65,2.65,0,0,1-.62-.11M23.56,12a5.11,5.11,0,0,1-2.83-.9A6.87,6.87,0,0,0,22.13,7a6.76,6.76,0,0,0-1.41-4.26,5.05,5.05,0,0,1,5.8,0,6.87,6.87,0,0,0,0,8.33,5.41,5.41,0,0,1-3,.91"/><path class="cls-1" d="M37.42,4.81a6,6,0,0,0-5.33-3.68,5.8,5.8,0,0,0-4,1.58,6.08,6.08,0,0,1,0,8.39,5.88,5.88,0,0,0,2.68,1.41l.28-.36a4.6,4.6,0,0,0,.91.09A5.36,5.36,0,0,0,37.37,7a5.43,5.43,0,0,0-.27-1.72,1,1,0,0,1,.32-.44M31.94,12a5,5,0,0,1-2.82-.9,6.87,6.87,0,0,0,0-8.33,5,5,0,0,1,3-.92A5.08,5.08,0,1,1,31.94,12"/><path class="cls-1" d="M28.72,5.26A1.05,1.05,0,0,1,29,4.82,4.74,4.74,0,0,0,27.81,3a5.76,5.76,0,0,0,.07,8v-.7A5.08,5.08,0,0,0,29,7a5.16,5.16,0,0,0-.26-1.72m-.9,4.51a5.13,5.13,0,0,1,0-5.73,5,5,0,0,1,0,5.73"/><path class="cls-1" d="M17.38,9.16A6.73,6.73,0,0,1,17,6.82a6.65,6.65,0,0,1,1.44-4l.82,0a5.72,5.72,0,0,0-3.92-1.62,5.63,5.63,0,0,0-4,1.57A6,6,0,0,1,13,7a6.07,6.07,0,0,1-1.69,4.12A5.86,5.86,0,0,0,14,12.54c.09-.12.18-.24.29-.37a4.5,4.5,0,0,0,.9.09,5.11,5.11,0,0,0,3.31-1.09h.78A6.07,6.07,0,0,1,18,9.27a3.45,3.45,0,0,1-.62-.11M15.18,12a5,5,0,0,1-2.81-.89A6.77,6.77,0,0,0,13.79,7a6.91,6.91,0,0,0-1.42-4.28,5,5,0,0,1,2.94-.9,5.12,5.12,0,0,1,2.83.91,6.86,6.86,0,0,0,0,8.32,5.36,5.36,0,0,1-3,.92"/></g></g></svg>