<svg xmlns="http://www.w3.org/2000/svg" viewBox="0 0 27.79 27.79"><defs><style>.cls-1{fill:#1d1d1b;}</style></defs><title>Recurso 3</title><g id="Capa_2" data-name="Capa 2"><g id="Layer_1" data-name="Layer 1"><path class="cls-1" d="M13.9,0A13.9,13.9,0,1,0,27.79,13.9,13.91,13.91,0,0,0,13.9,0m0,27.41A13.52,13.52,0,1,1,27.41,13.9,13.52,13.52,0,0,1,13.9,27.41"/><path class="cls-1" d="M6,8.44l0,0H6l.81-1,.3-.37a.44.44,0,0,0,.06-.44.41.41,0,0,0-.39-.24.43.43,0,0,0-.34.19L6.11,7c-.25.3-.49.61-.74.92l.39.3L6,8.44"/><path class="cls-1" d="M13.9.62A13.28,13.28,0,1,0,27.17,13.9,13.28,13.28,0,0,0,13.9.62m-2.15.83L13,1.32l.9,2.62.9-2.62L16,1.45l.14,3.74-1-.14-.09-2.49-.88,2.49h-.69l-.87-2.49-.09,2.49-1,.14ZM3.38,7.6l-.3-.24,0,0,0-.07.78-1,.9-1.13L4.94,5a1,1,0,0,1,.39-.28.91.91,0,0,1,.94.2.86.86,0,0,1,.22.93s0,0,.07,0a1,1,0,0,1,1.59.69.86.86,0,0,1,0,.39,1.89,1.89,0,0,1-.41.64L6.79,8.62,6,9.59l0,.07,0,0-.29-.23-1.13-.9L3.38,7.6M13.9,22.19a8.3,8.3,0,1,1,8.29-8.29,8.29,8.29,0,0,1-8.29,8.29M21.8,9.61l-.48-.82L23,6.64,20.5,7.77l-.69-.64,2.24-2.95.7.64-1.3,1.7,2.07-.95.61.76L22.75,8.14l1.94-.89.48.81Z"/><path class="cls-1" d="M6,6.07a.41.41,0,0,0-.1-.38.4.4,0,0,0-.46-.1.6.6,0,0,0-.26.24L4.25,6.92S4.18,7,4.19,7l.18.14.46.37L5.29,7l.46-.57A1,1,0,0,0,6,6.07"/><path class="cls-1" d="M6,13.9H13.9V6A8.11,8.11,0,0,0,6,13.9"/><path class="cls-1" d="M13.9,21.77a8.09,8.09,0,0,0,7.87-7.87H13.9Z"/></g></g></svg>