<svg xmlns="http://www.w3.org/2000/svg" viewBox="0 0 28.1 27.79"><defs><style>.cls-1{fill:#1d1d1b;}</style></defs><title>Recurso 4</title><g id="Capa_2" data-name="Capa 2"><g id="Layer_1" data-name="Layer 1"><path class="cls-1" d="M14.05,0A14,14,0,0,0,0,13.89a14,14,0,0,0,14.05,13.9A14,14,0,0,0,28.1,13.89,14,14,0,0,0,14.05,0m0,27.26a12.59,12.59,0,0,1-11.4-6.51L3,20.64A17.88,17.88,0,0,0,5,23.2a13.27,13.27,0,0,0,9,3.57,13,13,0,0,0,11.08-6.12c.18,0,.23-.13.17-.28a13.45,13.45,0,0,0,1.77-6.48,11.9,11.9,0,0,0-.54-3.65,15.27,15.27,0,0,0-.75-1.87.28.28,0,0,1-.05-.18.38.38,0,0,1,.12.15,16.16,16.16,0,0,1,.88,1.88,9.49,9.49,0,0,1,.8,3.67A13.42,13.42,0,0,1,14.05,27.26M2.78,20.44l9.84-7.08-.84-.48L3,20.17a13.48,13.48,0,0,1-1.67-6.25A12.49,12.49,0,0,1,13.8,1.38L12,12.55l.84.48L14,1.38c0-.14.11-.14.11,0l.07,12.29,2-1.18L14.24,1.38A12.75,12.75,0,0,1,26.75,13.89a13.26,13.26,0,0,1-1.68,6.29l-8.76-7.29-.84.48,9.42,6.83c.22.16.15.23-.09.1L14.23,14.2v2.28l10.6,4.05A12.58,12.58,0,0,1,14,26.47,12.44,12.44,0,0,1,3.25,20.53l10.62-4.05V14.19l-11,6.35c-.26.15-.33.07-.09-.1m-.25.12a14.76,14.76,0,0,1-1.16-3.39.32.32,0,0,1,0-.17.48.48,0,0,1,.08.16,16.51,16.51,0,0,0,1.32,3.2Zm25-9a.48.48,0,0,1-.07-.16,14.35,14.35,0,0,0-3.59-6.26A13.58,13.58,0,0,0,14.13.79,13.37,13.37,0,0,0,.77,14.15a14.58,14.58,0,0,0,.86,5c.46,1.1,1.23,2.59,1.27,2.66A.41.41,0,0,1,3,22a.44.44,0,0,1-.13-.14,25.59,25.59,0,0,1-1.43-2.7A13.86,13.86,0,0,1,.31,14.1,13.76,13.76,0,0,1,14.07.34a13.48,13.48,0,0,1,13.43,11,.33.33,0,0,1,0,.17"/></g></g></svg>