<svg xmlns="http://www.w3.org/2000/svg" viewBox="0 0 27.79 27.79"><defs><style>.cls-1{fill:#1d1d1b;}</style></defs><title>Recurso 2</title><g id="Capa_2" data-name="Capa 2"><g id="Layer_1" data-name="Layer 1"><path class="cls-1" d="M16.57,3.83a10.35,10.35,0,0,0-2.67-.35,10.13,10.13,0,0,0-2.6.34l2.64,7.28Z"/><path class="cls-1" d="M24.31,13.9a10.5,10.5,0,0,0-.66-3.69L18.7,23.14a10.46,10.46,0,0,0,5.61-9.24"/><path class="cls-1" d="M19.14,4.9l-3.05,8.4h-4.3L8.73,4.86A10.51,10.51,0,0,0,5.78,7.38l4.36,11.28,1.59-4.12h4.18l1.59,4.12L21.9,7.24A10.5,10.5,0,0,0,19.14,4.9"/><path class="cls-1" d="M13.9,0A13.9,13.9,0,1,0,27.79,13.9,13.93,13.93,0,0,0,13.9,0m0,26A12.13,12.13,0,1,1,26,13.9,12.15,12.15,0,0,1,13.9,26"/><path class="cls-1" d="M13.81,16.75l-2.68,7,0,.21a10.32,10.32,0,0,0,2.79.38A10.83,10.83,0,0,0,16.53,24l0-.26Z"/><path class="cls-1" d="M3.49,13.9A10.39,10.39,0,0,0,8.9,23L4.08,10.44a10.14,10.14,0,0,0-.59,3.46"/></g></g></svg>